<svg width="900" height="520" viewBox="0 0 900 520" fill="none" xmlns="http://www.w3.org/2000/svg">
  <defs>
    <linearGradient id="bg" x1="80" y1="40" x2="820" y2="460" gradientUnits="userSpaceOnUse">
      <stop stop-color="#E9F8F0"/>
      <stop offset="1" stop-color="#D7F0E2"/>
    </linearGradient>
    <linearGradient id="card" x1="200" y1="80" x2="730" y2="420" gradientUnits="userSpaceOnUse">
      <stop stop-color="#ffffff" stop-opacity="0.98"/>
      <stop offset="1" stop-color="#F9FFFB" stop-opacity="0.98"/>
    </linearGradient>
    <linearGradient id="leaf" x1="0" y1="0" x2="1" y2="1">
      <stop stop-color="#33A36B"/>
      <stop offset="1" stop-color="#0F6A3C"/>
    </linearGradient>
  </defs>

  <rect x="20" y="20" width="860" height="480" rx="34" fill="url(#bg)"/>
  <circle cx="760" cy="110" r="74" fill="#CBEAD9"/>
  <circle cx="815" cy="380" r="44" fill="#CBEAD9"/>
  <circle cx="110" cy="105" r="46" fill="#DDF5E8"/>

  <rect x="150" y="85" width="600" height="350" rx="26" fill="url(#card)" stroke="#CFE8D8" stroke-width="3"/>

  <text x="205" y="140" font-family="Arial, Helvetica, sans-serif" font-size="34" font-weight="700" fill="#0F5C38">Phytochemical-likeness</text>

  <rect x="205" y="212" width="220" height="145" rx="20" fill="#F3FBF6" stroke="#D8EEE1"/>
  <text x="230" y="245" font-family="Arial, Helvetica, sans-serif" font-size="22" font-weight="700" fill="#0F5C38">SMILES Input</text>
  <rect x="230" y="265" width="170" height="14" rx="7" fill="#D9EFE2"/>
  <rect x="230" y="290" width="135" height="14" rx="7" fill="#D9EFE2"/>
  <rect x="230" y="323" width="116" height="22" rx="11" fill="#1E8A55"/>
  <text x="255" y="339" font-family="Arial, Helvetica, sans-serif" font-size="12" font-weight="700" fill="white">Predict</text>

  <rect x="455" y="212" width="250" height="145" rx="20" fill="#F3FBF6" stroke="#D8EEE1"/>
  <text x="480" y="245" font-family="Arial, Helvetica, sans-serif" font-size="22" font-weight="700" fill="#0F5C38">Prediction</text>
  <circle cx="580" cy="300" r="48" fill="#E4F4EA"/>
  <path d="M580 260C559 260 542 277 542 298C542 319 559 336 580 336C601 336 618 319 618 298" stroke="#167C4A" stroke-width="10" stroke-linecap="round"/>
  <path d="M610 305L630 325" stroke="#167C4A" stroke-width="10" stroke-linecap="round"/>
  <path d="M565 300L576 311L598 287" stroke="#1E8A55" stroke-width="10" stroke-linecap="round" stroke-linejoin="round"/>
  <text x="480" y="385" font-family="Arial, Helvetica, sans-serif" font-size="18" fill="#5E6F66">Score • Confidence • Similarity</text>

  <path d="M740 112C690 140 663 185 651 247" stroke="#A5D6B8" stroke-width="6" stroke-dasharray="8 10"/>

  <g transform="translate(110,270)">
    <path d="M0 58C0 26 26 0 58 0H68C68 44 40 82 0 90V58Z" fill="url(#leaf)"/>
    <path d="M70 22C98 22 121 45 121 73V83C85 83 56 56 56 22H70Z" fill="#59B884"/>
    <path d="M49 12C49 64 49 101 49 143" stroke="#0F6A3C" stroke-width="5" stroke-linecap="round"/>
    <path d="M48 66C33 52 19 45 8 43" stroke="#0F6A3C" stroke-width="4" stroke-linecap="round"/>
    <path d="M49 90C63 79 80 75 97 76" stroke="#0F6A3C" stroke-width="4" stroke-linecap="round"/>
  </g>

  <g transform="translate(315,380)">
    <circle cx="0" cy="0" r="8" fill="#1F7C4D"/>
    <circle cx="40" cy="-20" r="8" fill="#1F7C4D"/>
    <circle cx="84" cy="5" r="8" fill="#1F7C4D"/>
    <circle cx="130" cy="-18" r="8" fill="#1F7C4D"/>
    <circle cx="174" cy="4" r="8" fill="#1F7C4D"/>
    <line x1="8" y1="0" x2="32" y2="-16" stroke="#6FB78E" stroke-width="4"/>
    <line x1="48" y1="-20" x2="76" y2="2" stroke="#6FB78E" stroke-width="4"/>
    <line x1="92" y1="5" x2="122" y2="-16" stroke="#6FB78E" stroke-width="4"/>
    <line x1="138" y1="-18" x2="166" y2="4" stroke="#6FB78E" stroke-width="4"/>
  </g>
</svg>
